<svg xmlns="http://www.w3.org/2000/svg" xmlns:xlink="http://www.w3.org/1999/xlink" width="500" zoomAndPan="magnify" viewBox="0 0 375 374.999991" height="500" preserveAspectRatio="xMidYMid meet" version="1.0"><defs><clipPath id="af6a6bb7c0"><path d="M 181 17.101562 L 198 17.101562 L 198 69 L 181 69 Z M 181 17.101562 " clip-rule="nonzero"/></clipPath><clipPath id="8373658ec7"><path d="M 294 166 L 346.390625 166 L 346.390625 183 L 294 183 Z M 294 166 " clip-rule="nonzero"/></clipPath><clipPath id="aa7771de42"><path d="M 28.390625 17.101562 L 145 17.101562 L 145 357.601562 L 28.390625 357.601562 Z M 28.390625 17.101562 " clip-rule="nonzero"/></clipPath><clipPath id="c1909e58f7"><path d="M 368.582031 332 L 375 332 L 375 353 L 368.582031 353 Z M 368.582031 332 " clip-rule="nonzero"/></clipPath></defs><path fill="#ffc44f" d="M 189.285156 82.984375 C 239.730469 82.984375 280.625 123.871094 280.625 174.308594 C 280.625 224.75 239.730469 265.632812 189.285156 265.632812 C 138.835938 265.632812 97.941406 224.75 97.941406 174.308594 C 97.941406 123.871094 138.835938 82.984375 189.285156 82.984375 Z M 189.285156 82.984375 " fill-opacity="1" fill-rule="evenodd"/><path fill="#ffe66b" d="M 189.285156 82.984375 C 239.730469 82.984375 280.625 123.871094 280.625 174.308594 C 280.625 175.03125 280.617188 175.753906 280.601562 176.472656 C 267 195.890625 244.464844 208.589844 218.953125 208.589844 C 177.421875 208.589844 143.75 174.925781 143.75 133.402344 C 143.75 116.421875 149.378906 100.761719 158.875 88.175781 C 168.386719 84.816406 178.621094 82.984375 189.285156 82.984375 Z M 189.285156 82.984375 " fill-opacity="1" fill-rule="evenodd"/><g clip-path="url(#af6a6bb7c0)"><path fill="#ffc44f" d="M 189.285156 17.242188 C 193.59375 17.242188 197.117188 20.769531 197.117188 25.078125 L 197.117188 61.027344 C 197.117188 65.339844 193.59375 68.863281 189.285156 68.863281 C 184.976562 68.863281 181.449219 65.339844 181.449219 61.027344 L 181.449219 25.078125 C 181.449219 20.769531 184.976562 17.242188 189.285156 17.242188 Z M 189.285156 17.242188 " fill-opacity="1" fill-rule="evenodd"/></g><path fill="#ffc44f" d="M 189.285156 331.375 C 184.976562 331.375 181.449219 327.847656 181.449219 323.539062 L 181.449219 287.589844 C 181.449219 283.277344 184.976562 279.753906 189.285156 279.753906 C 193.59375 279.753906 197.117188 283.277344 197.117188 287.589844 L 197.117188 323.539062 C 197.117188 327.847656 193.59375 331.375 189.285156 331.375 Z M 189.285156 331.375 " fill-opacity="1" fill-rule="evenodd"/><path fill="#ffc44f" d="M 267.832031 310.332031 C 264.101562 312.484375 259.285156 311.195312 257.128906 307.460938 L 239.152344 276.328125 C 236.996094 272.597656 238.289062 267.785156 242.015625 265.625 C 245.75 263.472656 250.566406 264.761719 252.71875 268.496094 L 270.699219 299.632812 C 272.855469 303.359375 271.5625 308.175781 267.832031 310.332031 Z M 267.832031 310.332031 " fill-opacity="1" fill-rule="evenodd"/><path fill="#ffc44f" d="M 325.332031 252.839844 C 323.179688 256.574219 318.367188 257.863281 314.632812 255.710938 L 283.488281 237.730469 C 279.757812 235.574219 278.464844 230.761719 280.621094 227.03125 C 282.777344 223.296875 287.589844 222.007812 291.320312 224.164062 L 322.46875 242.140625 C 326.199219 244.296875 327.488281 249.113281 325.332031 252.839844 Z M 325.332031 252.839844 " fill-opacity="1" fill-rule="evenodd"/><g clip-path="url(#8373658ec7)"><path fill="#ffc44f" d="M 346.378906 174.308594 L 346.378906 174.3125 C 346.378906 178.617188 342.855469 182.144531 338.546875 182.144531 L 302.585938 182.144531 C 298.277344 182.144531 294.753906 178.617188 294.753906 174.3125 L 294.753906 174.308594 C 294.753906 170.003906 298.277344 166.476562 302.585938 166.476562 L 338.546875 166.476562 C 342.855469 166.476562 346.378906 170 346.378906 174.308594 Z M 346.378906 174.308594 " fill-opacity="1" fill-rule="evenodd"/></g><path fill="#ffc44f" d="M 325.332031 95.777344 C 327.488281 99.507812 326.199219 104.320312 322.46875 106.480469 L 291.328125 124.453125 C 287.59375 126.609375 282.777344 125.320312 280.625 121.585938 C 278.46875 117.859375 279.761719 113.042969 283.488281 110.886719 L 314.632812 92.910156 C 318.363281 90.753906 323.179688 92.042969 325.332031 95.777344 Z M 325.332031 95.777344 " fill-opacity="1" fill-rule="evenodd"/><path fill="#ffc44f" d="M 267.832031 38.285156 C 271.5625 40.441406 272.855469 45.253906 270.699219 48.988281 L 252.71875 80.121094 C 250.566406 83.855469 245.75 85.144531 242.015625 82.992188 L 242.015625 82.988281 C 238.289062 80.832031 236.992188 76.019531 239.152344 72.289062 L 257.132812 41.15625 C 259.285156 37.421875 264.101562 36.132812 267.832031 38.285156 Z M 267.832031 38.285156 " fill-opacity="1" fill-rule="evenodd"/><g clip-path="url(#aa7771de42)"><path fill="#ff4d3d" d="M 86.605469 17.296875 C 105.503906 17.296875 120.972656 32.753906 120.972656 51.652344 L 120.972656 252.261719 C 135.433594 262.855469 144.828125 279.953125 144.828125 299.25 C 144.828125 331.398438 118.761719 357.460938 86.605469 357.460938 C 54.453125 357.460938 28.386719 331.398438 28.386719 299.25 C 28.386719 279.953125 37.78125 262.851562 52.242188 252.261719 L 52.242188 51.652344 C 52.242188 32.753906 67.707031 17.296875 86.605469 17.296875 Z M 86.605469 17.296875 " fill-opacity="1" fill-rule="evenodd"/></g><path fill="#f0f8ff" d="M 103.503906 269.507812 C 108.117188 272.136719 112.054688 275.808594 115.015625 280.210938 C 118.683594 285.671875 120.828125 292.222656 120.828125 299.25 C 120.828125 308.699219 116.996094 317.253906 110.804688 323.445312 C 104.613281 329.636719 96.054688 333.464844 86.605469 333.464844 C 77.15625 333.464844 68.601562 329.636719 62.410156 323.445312 C 56.214844 317.253906 52.386719 308.699219 52.386719 299.25 C 52.386719 292.222656 54.527344 285.671875 58.195312 280.210938 C 61.152344 275.808594 65.097656 272.136719 69.710938 269.507812 L 69.710938 64.714844 C 69.710938 60.058594 71.605469 55.835938 74.664062 52.777344 C 77.726562 49.71875 81.949219 47.820312 86.605469 47.820312 C 91.257812 47.820312 95.484375 49.71875 98.542969 52.777344 C 101.605469 55.839844 103.503906 60.0625 103.503906 64.714844 Z M 104.429688 287.292969 C 102.128906 283.867188 98.84375 281.136719 94.972656 279.5 C 92.496094 278.621094 90.722656 276.253906 90.722656 273.480469 L 90.722656 64.714844 C 90.722656 63.589844 90.257812 62.558594 89.507812 61.808594 C 88.761719 61.0625 87.734375 60.59375 86.605469 60.59375 C 85.480469 60.59375 84.449219 61.0625 83.699219 61.808594 C 82.953125 62.558594 82.484375 63.589844 82.484375 64.714844 L 82.484375 273.480469 L 82.480469 273.480469 C 82.480469 276 80.972656 278.390625 78.492188 279.390625 C 74.511719 281.015625 71.136719 283.792969 68.777344 287.292969 C 66.496094 290.691406 65.164062 294.804688 65.164062 299.25 C 65.164062 305.171875 67.5625 310.53125 71.445312 314.410156 C 75.324219 318.292969 80.683594 320.691406 86.601562 320.691406 C 92.527344 320.691406 97.886719 318.292969 101.765625 314.410156 C 105.648438 310.53125 108.046875 305.171875 108.046875 299.25 C 108.046875 294.804688 106.71875 290.691406 104.429688 287.292969 Z M 104.429688 287.292969 " fill-opacity="1" fill-rule="nonzero"/><path fill="#ffc44f" d="M 97.113281 273.480469 C 107.273438 277.625 114.4375 287.601562 114.4375 299.25 C 114.4375 314.617188 101.976562 327.082031 86.601562 327.082031 C 71.230469 327.082031 58.773438 314.617188 58.773438 299.25 C 58.773438 287.601562 65.933594 277.625 76.097656 273.480469 L 76.097656 64.714844 C 76.097656 58.9375 80.824219 54.210938 86.601562 54.210938 C 92.382812 54.210938 97.113281 58.9375 97.113281 64.714844 Z M 97.113281 273.480469 " fill-opacity="1" fill-rule="evenodd"/><path fill="#ffe66b" d="M 56.496094 64.429688 L 65.210938 64.429688 C 66.578125 64.429688 67.695312 65.550781 67.695312 66.914062 C 67.695312 68.277344 66.578125 69.398438 65.210938 69.398438 L 56.496094 69.398438 C 55.132812 69.398438 54.011719 68.277344 54.011719 66.914062 C 54.011719 65.550781 55.128906 64.429688 56.496094 64.429688 Z M 56.496094 64.429688 " fill-opacity="1" fill-rule="evenodd"/><path fill="#ffe66b" d="M 56.496094 82.035156 L 65.210938 82.035156 C 66.578125 82.035156 67.695312 83.152344 67.695312 84.519531 C 67.695312 85.886719 66.578125 87.003906 65.210938 87.003906 L 56.496094 87.003906 C 55.132812 87.003906 54.011719 85.886719 54.011719 84.519531 C 54.011719 83.152344 55.128906 82.035156 56.496094 82.035156 Z M 56.496094 82.035156 " fill-opacity="1" fill-rule="evenodd"/><path fill="#ffe66b" d="M 56.496094 99.640625 L 65.210938 99.640625 C 66.578125 99.640625 67.695312 100.757812 67.695312 102.125 C 67.695312 103.492188 66.578125 104.605469 65.210938 104.605469 L 56.496094 104.605469 C 55.132812 104.605469 54.011719 103.492188 54.011719 102.125 C 54.011719 100.757812 55.128906 99.640625 56.496094 99.640625 Z M 56.496094 99.640625 " fill-opacity="1" fill-rule="evenodd"/><path fill="#ffe66b" d="M 56.496094 117.246094 L 65.210938 117.246094 C 66.578125 117.246094 67.695312 118.363281 67.695312 119.730469 C 67.695312 121.09375 66.578125 122.214844 65.210938 122.214844 L 56.496094 122.214844 C 55.132812 122.214844 54.011719 121.09375 54.011719 119.730469 C 54.011719 118.363281 55.128906 117.246094 56.496094 117.246094 Z M 56.496094 117.246094 " fill-opacity="1" fill-rule="evenodd"/><path fill="#ffe66b" d="M 56.496094 134.851562 L 65.210938 134.851562 C 66.578125 134.851562 67.695312 135.96875 67.695312 137.335938 C 67.695312 138.699219 66.578125 139.820312 65.210938 139.820312 L 56.496094 139.820312 C 55.132812 139.820312 54.011719 138.699219 54.011719 137.335938 C 54.011719 135.96875 55.128906 134.851562 56.496094 134.851562 Z M 56.496094 134.851562 " fill-opacity="1" fill-rule="evenodd"/><path fill="#ffe66b" d="M 56.496094 152.453125 L 65.210938 152.453125 C 66.578125 152.453125 67.695312 153.574219 67.695312 154.9375 C 67.695312 156.308594 66.578125 157.421875 65.210938 157.421875 L 56.496094 157.421875 C 55.132812 157.421875 54.011719 156.308594 54.011719 154.9375 C 54.011719 153.574219 55.128906 152.453125 56.496094 152.453125 Z M 56.496094 152.453125 " fill-opacity="1" fill-rule="evenodd"/><path fill="#ffe66b" d="M 56.496094 170.0625 L 65.210938 170.0625 C 66.578125 170.0625 67.695312 171.179688 67.695312 172.542969 C 67.695312 173.910156 66.578125 175.027344 65.210938 175.027344 L 56.496094 175.027344 C 55.132812 175.027344 54.011719 173.910156 54.011719 172.542969 C 54.011719 171.179688 55.128906 170.0625 56.496094 170.0625 Z M 56.496094 170.0625 " fill-opacity="1" fill-rule="evenodd"/><path fill="#ffe66b" d="M 56.496094 187.667969 L 65.210938 187.667969 C 66.578125 187.667969 67.695312 188.78125 67.695312 190.152344 C 67.695312 191.515625 66.578125 192.636719 65.210938 192.636719 L 56.496094 192.636719 C 55.132812 192.636719 54.011719 191.515625 54.011719 190.152344 C 54.011719 188.78125 55.128906 187.667969 56.496094 187.667969 Z M 56.496094 187.667969 " fill-opacity="1" fill-rule="evenodd"/><path fill="#ffe66b" d="M 56.496094 205.269531 L 65.210938 205.269531 C 66.578125 205.269531 67.695312 206.390625 67.695312 207.753906 C 67.695312 209.121094 66.578125 210.238281 65.210938 210.238281 L 56.496094 210.238281 C 55.132812 210.238281 54.011719 209.121094 54.011719 207.753906 C 54.011719 206.390625 55.128906 205.269531 56.496094 205.269531 Z M 56.496094 205.269531 " fill-opacity="1" fill-rule="evenodd"/><path fill="#ffe66b" d="M 56.496094 222.875 L 65.210938 222.875 C 66.578125 222.875 67.695312 223.996094 67.695312 225.359375 C 67.695312 226.726562 66.578125 227.84375 65.210938 227.84375 L 56.496094 227.84375 C 55.132812 227.84375 54.011719 226.726562 54.011719 225.359375 C 54.011719 223.992188 55.128906 222.875 56.496094 222.875 Z M 56.496094 222.875 " fill-opacity="1" fill-rule="evenodd"/><path fill="#afced8" d="M 496.191406 362.628906 C 496.199219 362.59375 496.78125 362.886719 497.949219 363.054688 C 499.066406 363.234375 500.980469 363.203125 502.453125 361.714844 C 503.933594 360.296875 504.65625 357.574219 504.105469 354.738281 C 503.554688 351.890625 501.554688 349.015625 498.332031 347.636719 C 495.15625 346.148438 490.996094 346.488281 486.34375 346.945312 C 481.773438 347.492188 476.933594 348.429688 472.007812 349.964844 C 467.078125 351.472656 462.054688 353.519531 457.144531 356.148438 C 452.277344 358.703125 447.523438 362.222656 442.308594 365.679688 C 432.050781 372.605469 421.496094 378.949219 410.660156 382.109375 C 405.25 383.699219 399.960938 384.511719 394.816406 384.425781 C 389.730469 384.222656 385.0625 383.226562 381.082031 381.171875 C 379.113281 380.132812 377.324219 378.757812 376.097656 376.996094 C 374.859375 375.246094 374.292969 373.183594 374.398438 371.332031 C 374.605469 367.59375 376.875 364.933594 379.136719 363.949219 C 381.492188 362.917969 383.496094 363.667969 384.492188 364.265625 C 385.539062 364.902344 385.949219 365.390625 385.964844 365.375 C 385.957031 365.394531 385.449219 364.984375 384.359375 364.546875 C 383.300781 364.132812 381.4375 363.824219 379.667969 364.957031 C 377.9375 366.027344 376.464844 368.519531 376.710938 371.300781 C 376.898438 374.113281 379.179688 376.589844 382.621094 377.859375 C 386.03125 379.171875 390.332031 379.664062 394.757812 379.429688 C 399.140625 379.109375 403.972656 378.003906 408.738281 376.25 C 418.375 372.765625 428.042969 366.5 438.234375 359.609375 C 443.328125 356.242188 448.378906 352.632812 453.945312 349.925781 C 459.417969 347.234375 464.976562 345.296875 470.394531 344.011719 C 475.804688 342.699219 481.085938 342.101562 486.019531 341.960938 C 488.527344 341.953125 490.789062 341.953125 493.238281 342.230469 C 495.664062 342.527344 498.015625 343.214844 500.019531 344.394531 C 504.128906 346.738281 506.226562 350.925781 506.398438 354.453125 C 506.605469 358 505.261719 361.117188 503.1875 362.585938 C 501.085938 364.113281 498.972656 363.722656 497.878906 363.359375 C 496.714844 362.988281 496.207031 362.59375 496.191406 362.628906 " fill-opacity="1" fill-rule="nonzero"/><g clip-path="url(#c1909e58f7)"><path fill="#dddddd" d="M 372.371094 341.378906 C 372.414062 341.40625 371.523438 341.796875 370.582031 342.980469 C 370.132812 343.570312 369.828125 344.433594 370.179688 345.289062 C 370.507812 346.144531 371.363281 346.976562 372.460938 347.636719 C 376.894531 350.570312 384.929688 349.257812 392.453125 346.210938 C 400.023438 342.945312 406.5 338.300781 411.714844 335.855469 C 416.882812 333.269531 420.417969 332.589844 420.394531 332.558594 C 420.40625 332.589844 417.226562 334.15625 412.683594 337.46875 C 408.066406 340.628906 402.257812 346.039062 393.902344 349.683594 C 389.671875 351.445312 385.421875 352.25 381.460938 352.347656 C 377.453125 352.453125 373.675781 351.210938 371.347656 349.152344 C 370.179688 348.144531 369.257812 346.925781 369.023438 345.574219 C 368.769531 344.1875 369.523438 343.089844 370.152344 342.582031 C 371.476562 341.523438 372.394531 341.425781 372.371094 341.378906 " fill-opacity="1" fill-rule="nonzero"/><path fill="#afced8" d="M 395.90625 346.761719 C 393.273438 347.875 390.570312 348.757812 387.796875 349.449219 C 385.097656 350.121094 382.300781 350.867188 379.507812 350.914062 C 376.828125 350.957031 373.511719 350.550781 371.402344 348.722656 C 369.792969 347.328125 368.878906 344.914062 370.367188 343.308594 C 370.433594 343.191406 370.503906 343.082031 370.582031 342.980469 C 371.523438 341.796875 372.414062 341.40625 372.371094 341.378906 C 372.394531 341.425781 371.476562 341.523438 370.152344 342.582031 C 369.523438 343.089844 368.769531 344.1875 369.023438 345.574219 C 369.257812 346.925781 370.179688 348.144531 371.347656 349.152344 C 373.675781 351.210938 377.453125 352.453125 381.460938 352.347656 C 385.421875 352.25 389.671875 351.445312 393.902344 349.683594 C 402.257812 346.039062 408.066406 340.628906 412.683594 337.46875 C 417.226562 334.15625 420.40625 332.589844 420.394531 332.558594 C 420.402344 332.570312 419.859375 332.683594 418.882812 332.972656 C 410.785156 336.765625 404.179688 343.257812 395.90625 346.761719 " fill-opacity="1" fill-rule="nonzero"/></g><path fill="#dddddd" d="M 506.398438 354.453125 C 506.226562 350.925781 504.128906 346.738281 500.019531 344.394531 C 498.015625 343.214844 495.664062 342.527344 493.238281 342.230469 C 490.789062 341.953125 488.527344 341.953125 486.019531 341.960938 C 481.085938 342.101562 475.804688 342.699219 470.394531 344.011719 C 464.976562 345.296875 459.417969 347.234375 453.945312 349.925781 C 448.378906 352.632812 443.328125 356.242188 438.234375 359.609375 C 428.042969 366.5 418.375 372.765625 408.738281 376.25 C 408.558594 376.3125 408.382812 376.375 408.207031 376.441406 C 405.78125 377.601562 403.285156 378.574219 400.621094 379.125 C 395.59375 380.164062 390.308594 381.441406 385.171875 380.425781 C 380.417969 379.484375 375.425781 375.894531 375.628906 370.511719 C 375.71875 368.136719 376.945312 365.9375 379.027344 364.722656 C 380.738281 363.722656 382.746094 363.546875 384.355469 364.546875 C 384.355469 364.546875 384.355469 364.546875 384.359375 364.546875 C 385.449219 364.984375 385.957031 365.394531 385.964844 365.375 C 385.949219 365.390625 385.539062 364.902344 384.492188 364.265625 C 383.496094 363.667969 381.492188 362.917969 379.136719 363.949219 C 376.875 364.933594 374.605469 367.59375 374.398438 371.332031 C 374.292969 373.183594 374.859375 375.246094 376.097656 376.996094 C 377.324219 378.757812 379.113281 380.132812 381.082031 381.171875 C 385.0625 383.226562 389.730469 384.222656 394.816406 384.425781 C 395.125 384.433594 395.433594 384.433594 395.742188 384.433594 C 396.917969 384.273438 398.070312 384.125 399.167969 383.96875 C 402.089844 383.558594 404.890625 382.945312 407.683594 382.09375 C 407.921875 381.9375 408.1875 381.804688 408.46875 381.707031 C 414.375 379.65625 419.914062 376.433594 425.402344 373.070312 C 429.71875 370.070312 434.171875 367.308594 438.636719 364.53125 C 448.117188 358.628906 457.804688 352.867188 468.351562 349.078125 C 473.636719 347.179688 479.09375 345.84375 484.683594 345.261719 C 487.207031 344.996094 489.773438 344.851562 492.3125 344.917969 C 494.792969 344.984375 497.375 345.304688 499.574219 346.535156 C 503.320312 348.636719 504.929688 352.390625 504.878906 356.523438 C 504.855469 358.378906 504.558594 360.320312 503.28125 361.753906 C 502.40625 362.738281 501.207031 363.109375 500.007812 363.019531 C 499.226562 363.179688 498.492188 363.140625 497.949219 363.054688 C 496.78125 362.886719 496.199219 362.59375 496.191406 362.628906 C 496.207031 362.59375 496.714844 362.988281 497.878906 363.359375 C 498.972656 363.722656 501.085938 364.113281 503.1875 362.585938 C 505.261719 361.117188 506.605469 358 506.398438 354.453125 " fill-opacity="1" fill-rule="nonzero"/></svg>